<?xml version="1.0" encoding="utf-8"?>
<!-- Generator: Adobe Illustrator 16.0.0, SVG Export Plug-In . SVG Version: 6.00 Build 0)  -->
<!DOCTYPE svg PUBLIC "-//W3C//DTD SVG 1.1//EN" "http://www.w3.org/Graphics/SVG/1.1/DTD/svg11.dtd">
<svg version="1.1" xmlns="http://www.w3.org/2000/svg" xmlns:xlink="http://www.w3.org/1999/xlink" x="0px" y="0px"
	 width="331.418px" height="311.984px" viewBox="0 0 331.418 311.984" enable-background="new 0 0 331.418 311.984"
	 xml:space="preserve">
<g id="Layer_1">
</g>
<g id="Layer_2">
</g>
<g id="Layer_3">
</g>
<g id="Layer_4">
	<circle fill="#FFFFFF" cx="166.906" cy="168.146" r="125.996"/>
	<g>
		<g>
			<path fill="#0100C2" d="M93.635,283.655l-14.198,19.484l-4.823-3.516l6.79-15.421l-12.576,11.204l-4.846-3.533l14.198-19.481
				l3.004,2.188l-11.187,15.352l14.371-13.029l3.104,2.261l-8.025,17.654l11.187-15.35L93.635,283.655z"/>
			<path fill="#0100C2" d="M73.7,268.242l-17.268,16.824l-10.236-10.508l2.921-2.846l7.459,7.655l3.828-3.728l-6.931-7.116
				l2.91-2.834l6.931,7.116l4.688-4.568l-7.711-7.914l2.921-2.846L73.7,268.242z"/>
			<path fill="#0100C2" d="M47.102,250.768l-3.344,2.333l-4.922-7.054l7.877-5.494c1.332,0.128,2.754,0.633,4.265,1.517
				c1.512,0.883,2.726,1.981,3.642,3.293c1.116,1.602,1.708,3.287,1.774,5.06c0.067,1.771-0.435,3.562-1.505,5.37
				c-1.071,1.811-2.667,3.455-4.788,4.936c-2.177,1.519-4.291,2.455-6.342,2.809c-2.051,0.356-3.862,0.223-5.433-0.4
				c-1.57-0.621-2.917-1.737-4.04-3.347c-1.349-1.933-1.937-3.825-1.765-5.677c0.172-1.851,1.095-3.607,2.77-5.27l3,2.718
				c-0.847,0.952-1.314,1.938-1.402,2.964c-0.088,1.023,0.182,1.985,0.81,2.883c0.972,1.396,2.301,2.146,3.986,2.252
				c1.686,0.108,3.639-0.613,5.86-2.163c2.383-1.661,3.869-3.393,4.457-5.194c0.512-1.546,0.292-3.002-0.663-4.37
				c-0.446-0.639-1.058-1.195-1.838-1.676c-0.781-0.478-1.618-0.805-2.515-0.982l-2.5,1.745L47.102,250.768z"/>
			<path fill="#0100C2" d="M46.586,233.539l-21.816,10.257l-1.694-3.602l8.587-4.036l-3.337-7.101l-8.587,4.038l-1.692-3.601
				l21.816-10.257l1.694,3.6l-9.54,4.484l3.337,7.101l9.54-4.486L46.586,233.539z"/>
			<path fill="#0100C2" d="M37.655,213.333l-23.203,6.541l-1.053-3.733l13.3-12.155l-15.496,4.368l-1.008-3.577l23.203-6.541
				l1.088,3.861l-12.971,11.926l15.131-4.267L37.655,213.333z"/>
			<path fill="#0100C2" d="M30.207,174.307l0.479,4.301l-5.235,2.323l0.874,7.864l5.607,1.021l0.468,4.218l-24.811-4.987
				l-0.466-4.202L30.207,174.307z M21.539,182.659l-8.589,3.701l9.187,1.674L21.539,182.659z"/>
			<path fill="#0100C2" d="M6.163,168.85l0.372-7.269c0.094-1.837,0.37-3.213,0.829-4.127c0.458-0.914,1.194-1.74,2.209-2.478
				c1.015-0.738,2.311-1.292,3.889-1.66c1.578-0.37,3.521-0.496,5.831-0.377c2.081,0.106,3.878,0.435,5.392,0.983
				c1.515,0.549,2.703,1.207,3.562,1.975c0.861,0.768,1.493,1.674,1.895,2.72c0.402,1.046,0.562,2.373,0.48,3.981l-0.382,7.481
				L6.163,168.85z M10.439,165.083l15.93,0.814l0.153-2.989c0.065-1.281-0.007-2.215-0.219-2.802
				c-0.211-0.587-0.55-1.077-1.019-1.469c-0.468-0.391-1.221-0.734-2.259-1.029c-1.038-0.294-2.416-0.486-4.132-0.573
				c-1.783-0.091-3.194-0.04-4.235,0.154c-1.041,0.193-1.87,0.536-2.487,1.025c-0.617,0.49-1.038,1.103-1.261,1.838
				c-0.171,0.55-0.297,1.625-0.379,3.223L10.439,165.083z"/>
			<path fill="#0100C2" d="M25.897,137.429l0.637-3.872c3.082,0.432,4.959-0.521,5.633-2.86c0.334-1.159,0.294-2.157-0.12-2.995
				c-0.414-0.839-1.069-1.387-1.965-1.645c-0.526-0.152-1.007-0.165-1.442-0.04c-0.435,0.125-0.839,0.392-1.213,0.797
				s-1.102,1.439-2.184,3.101c-0.964,1.491-1.846,2.532-2.644,3.124c-0.797,0.591-1.731,0.975-2.802,1.151
				c-1.072,0.177-2.149,0.108-3.232-0.204c-1.264-0.364-2.318-0.979-3.163-1.844c-0.845-0.866-1.379-1.878-1.604-3.039
				c-0.225-1.16-0.123-2.482,0.306-3.968c0.643-2.232,1.752-3.802,3.325-4.706c1.572-0.904,3.497-1.069,5.772-0.493l-0.902,3.899
				c-1.291-0.189-2.265-0.076-2.921,0.339c-0.656,0.416-1.133,1.139-1.431,2.172c-0.297,1.032-0.312,1.889-0.042,2.572
				c0.27,0.682,0.726,1.115,1.366,1.3c0.629,0.182,1.233,0.082,1.81-0.302c0.577-0.382,1.386-1.41,2.427-3.083
				c1.114-1.767,2.103-2.99,2.967-3.67c0.864-0.68,1.848-1.106,2.952-1.279c1.104-0.171,2.352-0.057,3.743,0.344
				c2.011,0.579,3.523,1.686,4.536,3.318c1.013,1.633,1.139,3.766,0.38,6.399C34.745,136.602,31.348,138.43,25.897,137.429z"/>
			<path fill="#0100C2" d="M47.413,102.897l-1.841,3.916l-5.677-0.756l-3.367,7.161l4.246,3.803l-1.805,3.839l-18.542-17.224
				l1.799-3.826L47.413,102.897z M35.658,105.484l-9.257-1.336l6.956,6.23L35.658,105.484z"/>
			<path fill="#0100C2" d="M49.661,99.307L29.807,85.632l2.257-3.277l7.815,5.382l4.449-6.459l-7.814-5.382l2.258-3.277
				l19.854,13.675l-2.257,3.277l-8.682-5.98l-4.449,6.46l8.681,5.979L49.661,99.307z"/>
			<path fill="#0100C2" d="M74.939,68.59l-3,3.118l-5.134-2.537l-5.486,5.703l2.801,4.962l-2.941,3.058L49.141,60.633l2.931-3.046
				L74.939,68.59z M62.975,67.269l-8.339-4.235l4.59,8.132L62.975,67.269z"/>
			<path fill="#0100C2" d="M84.954,60.85L70.865,41.288l3.229-2.325l14.089,19.562L84.954,60.85z"/>
			<path fill="#0100C2" d="M92.935,55.1L81.227,34.026l3.393-1.884l14.891,10.145l-7.819-14.074l3.249-1.805l11.708,21.074
				l-3.507,1.948l-14.592-9.877l7.634,13.743L92.935,55.1z"/>
			<path fill="#0100C2" d="M108.807,37.847l3.507-1.763c1.463,2.746,3.339,3.704,5.626,2.874c1.134-0.412,1.917-1.032,2.352-1.86
				c0.435-0.827,0.493-1.679,0.174-2.555c-0.187-0.516-0.459-0.911-0.816-1.19c-0.358-0.278-0.811-0.449-1.358-0.513
				c-0.549-0.062-1.813-0.043-3.793,0.058c-1.773,0.097-3.133-0.003-4.081-0.3c-0.947-0.297-1.807-0.827-2.58-1.589
				s-1.352-1.674-1.736-2.734c-0.449-1.235-0.572-2.449-0.37-3.642c0.203-1.192,0.708-2.22,1.514-3.084
				c0.806-0.864,1.936-1.559,3.388-2.087c2.185-0.793,4.105-0.819,5.762-0.08c1.657,0.74,2.921,2.2,3.793,4.378l-3.683,1.565
				c-0.606-1.156-1.271-1.876-1.992-2.163c-0.723-0.287-1.588-0.246-2.599,0.121c-1.01,0.367-1.711,0.86-2.104,1.479
				c-0.394,0.62-0.476,1.243-0.249,1.87c0.224,0.616,0.66,1.044,1.309,1.286c0.648,0.242,1.956,0.291,3.921,0.149
				c2.083-0.139,3.655-0.058,4.713,0.24s1.982,0.844,2.771,1.636c0.789,0.792,1.431,1.868,1.924,3.228
				c0.715,1.967,0.71,3.841-0.015,5.62s-2.375,3.136-4.951,4.071C114.68,44.515,111.205,42.843,108.807,37.847z"/>
			<path fill="#0100C2" d="M136.209,37.493l-4-19.626l-5.751,1.172l-0.814-3.996l15.388-3.136l0.814,3.996l-5.737,1.168
				l4.001,19.626L136.209,37.493z"/>
			<path fill="#0100C2" d="M150.328,35.178l-2.284-24l3.961-0.377l2.285,24L150.328,35.178z"/>
			<path fill="#0100C2" d="M164.568,34.357l0.325-20.027l-5.87-0.095l0.066-4.078l15.7,0.254l-0.065,4.078l-5.851-0.095
				l-0.325,20.026L164.568,34.357z"/>
			<path fill="#0100C2" d="M182.916,11.054l3.927,0.637L184.75,24.58c-0.325,2.001-0.488,3.313-0.49,3.935
				c0.004,1.079,0.287,1.957,0.85,2.637c0.563,0.68,1.381,1.108,2.455,1.282c0.911,0.148,1.687,0.066,2.327-0.247
				s1.124-0.811,1.453-1.497c0.329-0.685,0.685-2.212,1.07-4.582l2.14-13.165l3.927,0.639l-2.031,12.498
				c-0.519,3.193-1.062,5.473-1.635,6.84c-0.573,1.368-1.528,2.395-2.867,3.083c-1.339,0.688-2.987,0.873-4.947,0.555
				c-2.034-0.33-3.562-0.954-4.585-1.869c-1.023-0.916-1.685-2.079-1.983-3.488c-0.298-1.408-0.159-3.893,0.42-7.453L182.916,11.054
				z"/>
			<path fill="#0100C2" d="M204.941,40.332l6.185-19.051l-5.583-1.812l1.259-3.879l14.937,4.849l-1.259,3.879l-5.568-1.808
				l-6.185,19.051L204.941,40.332z"/>
			<path fill="#0100C2" d="M218.621,45.191l10.729-21.59l13.135,6.528l-1.814,3.652l-9.571-4.756l-2.38,4.785l8.896,4.421
				l-1.807,3.637l-8.896-4.42l-2.914,5.861l9.898,4.918l-1.814,3.652L218.621,45.191z"/>
			<path fill="#0100C2" d="M251.802,50.407c1.842-2.205,3.686-3.748,5.527-4.629c1.844-0.882,3.584-1.232,5.219-1.052
				c1.635,0.18,3.201,0.896,4.699,2.146c2.17,1.813,3.248,4.12,3.23,6.92c-0.018,2.8-1.307,5.73-3.863,8.793
				c-2.587,3.097-5.332,4.91-8.232,5.443c-2.558,0.479-4.926-0.192-7.104-2.013c-2.196-1.834-3.295-4.043-3.293-6.627
				C247.993,56.438,249.267,53.444,251.802,50.407z M255.063,52.916c-1.777,2.128-2.708,4.062-2.787,5.803
				c-0.08,1.74,0.478,3.11,1.676,4.109c1.203,1.007,2.643,1.312,4.317,0.919c1.674-0.395,3.425-1.685,5.253-3.874
				c1.791-2.146,2.731-4.053,2.816-5.724c0.088-1.67-0.493-3.026-1.74-4.068c-1.246-1.042-2.693-1.373-4.342-0.993
				C258.608,49.469,256.877,50.745,255.063,52.916z"/>
			<path fill="#0100C2" d="M262.505,75.732l18.162-15.852l8.911,10.208l-3.072,2.681l-6.294-7.21l-4.301,3.752l5.451,6.244
				l-3.072,2.682l-5.451-6.245l-7.717,6.738L262.505,75.732z"/>
			<path fill="#0100C2" d="M282.11,102.126l17.516-9.715l-2.848-5.134l3.568-1.978l7.616,13.734l-3.567,1.978l-2.838-5.119
				l-17.517,9.714L282.11,102.126z"/>
			<path fill="#0100C2" d="M288.798,114.987l22.566-8.479l5.16,13.731l-3.817,1.435l-3.759-10.006l-5.004,1.88l3.494,9.298
				l-3.803,1.429l-3.494-9.298l-6.125,2.302l3.887,10.344l-3.817,1.435L288.798,114.987z"/>
			<path fill="#0100C2" d="M306.821,145.006l-0.696,4.085c-2.763-0.055-4.895-0.646-6.392-1.773c-1.5-1.128-2.453-2.696-2.859-4.705
				c-0.514-2.525,0.042-4.769,1.67-6.732c1.878-2.261,4.724-3.778,8.539-4.553c4.027-0.817,7.367-0.549,10.014,0.806
				c2.297,1.18,3.717,3.103,4.258,5.77c0.441,2.173,0.07,4.14-1.116,5.904c-0.841,1.256-2.25,2.338-4.226,3.242l-1.913-3.638
				c1.229-0.508,2.108-1.198,2.642-2.075c0.533-0.875,0.697-1.814,0.494-2.815c-0.291-1.432-1.15-2.473-2.58-3.124
				s-3.58-0.686-6.448-0.104c-2.976,0.604-5.003,1.474-6.081,2.611c-1.079,1.136-1.475,2.408-1.189,3.815
				c0.209,1.032,0.791,1.842,1.745,2.432C303.634,144.741,305.015,145.026,306.821,145.006z"/>
			<path fill="#0100C2" d="M299.507,156.063l24.09-0.897l0.149,3.977l-9.481,0.353l0.289,7.838l9.484-0.352l0.146,3.976
				l-24.09,0.897l-0.148-3.978l10.533-0.393l-0.291-7.838l-10.535,0.393L299.507,156.063z"/>
			<path fill="#0100C2" d="M299.824,178.182l23.92,3.003l-0.483,3.85l-16.982,6.024l15.975,2.005l-0.463,3.687l-23.92-3.002
				l0.499-3.981l16.589-5.939l-15.598-1.958L299.824,178.182z"/>
			<path fill="#0100C2" d="M308.265,202.638c2.748,0.834,4.887,1.929,6.42,3.281c1.529,1.354,2.531,2.818,3.004,4.394
				c0.473,1.576,0.424,3.297-0.143,5.165c-0.822,2.705-2.525,4.597-5.109,5.675c-2.586,1.075-5.787,1.035-9.604-0.126
				c-3.862-1.173-6.604-2.991-8.227-5.456c-1.438-2.166-1.743-4.608-0.919-7.324c0.831-2.739,2.438-4.612,4.817-5.618
				C301.225,201.483,304.478,201.487,308.265,202.638z M307.226,206.62c-2.652-0.807-4.795-0.907-6.43-0.302
				c-1.633,0.605-2.676,1.654-3.129,3.146c-0.457,1.501-0.178,2.946,0.84,4.334c1.016,1.387,2.887,2.495,5.613,3.325
				c2.676,0.812,4.799,0.933,6.371,0.36c1.571-0.573,2.595-1.637,3.066-3.19c0.473-1.556,0.211-3.019-0.781-4.386
				C311.782,208.537,309.933,207.442,307.226,206.62z"/>
			<path fill="#0100C2" d="M289.085,222.423l21.488,10.486l-1.746,3.577l-17.821-8.696l-4.356,8.927l-3.664-1.79L289.085,222.423z"
				/>
			<path fill="#0100C2" d="M290.733,245.452c2.35,1.65,4.041,3.358,5.074,5.121s1.528,3.467,1.484,5.111
				c-0.043,1.645-0.625,3.266-1.746,4.862c-1.625,2.315-3.834,3.58-6.625,3.797s-5.82-0.82-9.086-3.114
				c-3.303-2.317-5.34-4.9-6.113-7.748c-0.69-2.508-0.219-4.924,1.412-7.247c1.645-2.342,3.754-3.62,6.33-3.835
				C284.405,242.161,287.495,243.178,290.733,245.452z M288.505,248.911c-2.27-1.594-4.275-2.358-6.016-2.292
				c-1.74,0.065-3.059,0.737-3.954,2.014c-0.903,1.284-1.087,2.743-0.556,4.38c0.534,1.635,1.966,3.271,4.299,4.91
				c2.289,1.605,4.268,2.382,5.939,2.327c1.672-0.052,2.976-0.744,3.91-2.073c0.933-1.331,1.142-2.8,0.625-4.411
				C292.236,252.156,290.82,250.536,288.505,248.911z"/>
			<path fill="#0100C2" d="M266.248,271.053l2.881,2.887l-6.089,6.074l-6.782-6.798c-0.106-1.333,0.144-2.823,0.749-4.466
				c0.607-1.643,1.476-3.029,2.609-4.159c1.381-1.378,2.939-2.254,4.672-2.629c1.734-0.374,3.584-0.191,5.551,0.547
				c1.97,0.739,3.867,2.024,5.693,3.856c1.875,1.878,3.166,3.795,3.871,5.753c0.709,1.958,0.893,3.766,0.554,5.419
				c-0.339,1.656-1.203,3.177-2.593,4.562c-1.669,1.665-3.43,2.573-5.281,2.726c-1.854,0.153-3.746-0.449-5.672-1.807l2.152-3.429
				c1.086,0.668,2.141,0.956,3.164,0.863c1.023-0.091,1.923-0.524,2.698-1.298c1.204-1.202,1.71-2.642,1.522-4.318
				c-0.188-1.68-1.238-3.477-3.151-5.395c-2.053-2.056-4.017-3.217-5.892-3.481c-1.613-0.236-3.008,0.235-4.188,1.412
				c-0.552,0.551-0.994,1.251-1.33,2.103c-0.334,0.852-0.51,1.733-0.529,2.646l2.155,2.159L266.248,271.053z"/>
			<path fill="#0100C2" d="M245.132,277.547l5.908,8.254l14.007,7.139l-3.798,2.718l-9.324-5.05l1.822,10.421l-3.73,2.669
				l-2.232-15.608l-5.887-8.226L245.132,277.547z"/>
		</g>
		<g>
			<path fill="#AF0000" d="M282.28,118.257h-40.982l0.041,116.238h-36.787V118.257h-41.247V92.032H266.94
				c-23.035-30.304-59.453-49.883-100.453-49.883c-40.851,0-77.146,19.439-100.195,49.554h10.376l15.198,99.077l15.076-99.077
				h25.355v145.103h-15.715v-114.32l-16.661,114.32H83.686l-16.539-114.32v114.32h-6.51c21.189,32.655,57.052,54.891,98.265,57.336
				V210.19h21.677v83.397c63.017-7.01,112.03-60.429,112.03-125.317C292.608,150.498,288.913,133.593,282.28,118.257z
				 M169.739,193.111c-7.074,0-12.809-5.735-12.809-12.81c0-7.074,5.735-12.809,12.809-12.809c7.074,0,12.81,5.735,12.81,12.809
				C182.549,187.375,176.813,193.111,169.739,193.111z"/>
			<path fill="#AF0000" d="M51.432,116.625c-7.088,15.768-11.065,33.236-11.065,51.645c0,18.407,3.977,35.877,11.065,51.645V116.625
				z"/>
		</g>
	</g>
</g>
</svg>
